<svg width="40" height="50" viewBox="0 0 40 50" fill="none" xmlns="http://www.w3.org/2000/svg">
<path d="M37.86 34.375C38.9388 34.375 39.8132 33.5007 39.8132 32.4219V7.8125C39.8132 3.50456 36.3086 0 32.0007 0H14.2646C12.2409 0 10.2634 0.824356 8.83896 2.26135L2.38945 8.76846C0.96199 10.2085 0.175781 12.1185 0.175781 14.146V42.1875C0.175781 46.4954 3.68034 50 7.98828 50H32.001C36.3086 50 39.8135 46.4954 39.8135 42.1875C39.8135 41.1087 38.9388 40.2344 37.8604 40.2344C36.7816 40.2344 35.9073 41.1087 35.9073 42.1875C35.9073 44.3413 34.1548 46.0938 32.001 46.0938H7.98828C5.8345 46.0938 4.08203 44.3413 4.08203 42.1875V16.5039H9.84375C13.6131 16.5039 16.6797 13.4373 16.6797 9.66797C16.6797 8.58917 15.8054 7.71484 14.7266 7.71484C13.6478 7.71484 12.7734 8.58917 12.7734 9.66797C12.7734 11.2835 11.4593 12.5977 9.84375 12.5977H4.41696C4.59778 12.2017 4.8484 11.8362 5.1635 11.5181L11.6134 5.01137C12.3092 4.30908 13.2758 3.90625 14.2646 3.90625H32.0007C34.1548 3.90625 35.9069 5.65872 35.9069 7.8125V32.4219C35.9069 33.5007 36.7816 34.375 37.86 34.375V34.375Z" fill="#505050"/>
</svg>
