<svg width="50" height="50" viewBox="0 0 50 50" fill="none" xmlns="http://www.w3.org/2000/svg">
<g opacity="0.4">
<path d="M42.86 34.375C43.9388 34.375 44.8132 33.5007 44.8132 32.4219V7.8125C44.8132 3.50456 41.3086 0 37.0007 0H19.2646C17.2409 0 15.2634 0.824356 13.839 2.26135L7.38945 8.76846C5.96199 10.2085 5.17578 12.1185 5.17578 14.146V42.1875C5.17578 46.4954 8.68034 50 12.9883 50H37.001C41.3086 50 44.8135 46.4954 44.8135 42.1875C44.8135 41.1087 43.9388 40.2344 42.8604 40.2344C41.7816 40.2344 40.9073 41.1087 40.9073 42.1875C40.9073 44.3413 39.1548 46.0938 37.001 46.0938H12.9883C10.8345 46.0938 9.08203 44.3413 9.08203 42.1875V16.5039H14.8438C18.6131 16.5039 21.6797 13.4373 21.6797 9.66797C21.6797 8.58917 20.8054 7.71484 19.7266 7.71484C18.6478 7.71484 17.7734 8.58917 17.7734 9.66797C17.7734 11.2835 16.4593 12.5977 14.8438 12.5977H9.41696C9.59778 12.2017 9.8484 11.8362 10.1635 11.5181L16.6134 5.01137C17.3092 4.30908 18.2758 3.90625 19.2646 3.90625H37.0007C39.1548 3.90625 40.9069 5.65872 40.9069 7.8125V32.4219C40.9069 33.5007 41.7816 34.375 42.86 34.375V34.375Z" fill="#505050"/>
</g>
</svg>
