<svg width="16" height="16" viewBox="0 0 16 16" fill="none" xmlns="http://www.w3.org/2000/svg">
<g clip-path="url(#clip0)">
<path d="M12.74 8.76863C12.0621 8.28153 11.3242 7.90662 10.5468 7.65056C11.5804 6.87456 12.2502 5.63903 12.2502 4.25C12.2502 1.90656 10.3437 0 8.00023 0C5.65676 0 3.75023 1.90656 3.75023 4.25C3.75023 5.64075 4.42173 6.87762 5.45751 7.65347C4.50851 7.96591 3.61804 8.45206 2.83867 9.09313C1.40954 10.2687 0.415888 11.9083 0.0407946 13.7101C-0.0767679 14.2747 0.0640759 14.8545 0.427138 15.301C0.78842 15.7452 1.32414 16 1.89689 16H8.34398C8.68917 16 8.96898 15.7202 8.96898 15.375C8.96898 15.0298 8.68917 14.75 8.34398 14.75H1.89689C1.63008 14.75 1.46911 14.6011 1.39692 14.5123C1.27226 14.359 1.22401 14.1595 1.26454 13.9648C1.91317 10.8494 4.66114 8.57356 7.83454 8.49681C7.88951 8.49894 7.94473 8.5 8.00023 8.5C8.05611 8.5 8.11176 8.49891 8.16714 8.49675C9.5567 8.52962 10.8822 8.97288 12.0105 9.78369C12.2908 9.98513 12.6814 9.92116 12.8828 9.64091C13.0842 9.36059 13.0203 8.97006 12.74 8.76863ZM8.15239 7.24619C8.10173 7.24525 8.05101 7.24478 8.00023 7.24478C7.94979 7.24478 7.89936 7.24528 7.84898 7.24622C6.26476 7.16719 5.00023 5.8535 5.00023 4.25C5.00023 2.59578 6.34601 1.25 8.00023 1.25C9.65445 1.25 11.0002 2.59578 11.0002 4.25C11.0002 5.85319 9.73617 7.16669 8.15239 7.24619Z" fill="#31609A"/>
<path d="M14.2277 13.3437L15.817 11.7545C16.061 11.5104 16.061 11.1146 15.817 10.8705C15.5729 10.6264 15.1771 10.6264 14.9331 10.8705L13.3438 12.4598L11.7544 10.8705C11.5104 10.6264 11.1146 10.6264 10.8706 10.8705C10.6265 11.1146 10.6265 11.5104 10.8706 11.7544L12.4599 13.3437L10.8706 14.933C10.6265 15.1771 10.6265 15.5729 10.8706 15.8169C10.9926 15.939 11.1525 16 11.3125 16C11.4725 16 11.6324 15.939 11.7544 15.817L13.3438 14.2276L14.9331 15.817C15.0551 15.939 15.215 16 15.375 16C15.535 16 15.6949 15.939 15.817 15.817C16.061 15.5729 16.061 15.1771 15.817 14.9331L14.2277 13.3437Z" fill="#31609A"/>
</g>
<defs>
<clipPath id="clip0">
<rect width="16" height="16" fill="white"/>
</clipPath>
</defs>
</svg>
