<svg width="16" height="16" viewBox="0 0 16 16" fill="none" xmlns="http://www.w3.org/2000/svg">
<path d="M1.43227 8.44195C1.18861 8.19826 1.18861 7.80173 1.43283 7.55751L6.91077 2.06604C7.15452 1.82167 7.15405 1.42592 6.90967 1.18213C6.66527 0.938384 6.26952 0.938853 6.02573 1.18323L0.548391 6.6741C-0.182703 7.4052 -0.182703 8.59479 0.547828 9.32532L6.02573 14.8167C6.14786 14.9391 6.30802 15.0003 6.46827 15.0003C6.62795 15.0003 6.7877 14.9395 6.90967 14.8178C7.15405 14.574 7.15455 14.1783 6.91077 13.9339L1.43227 8.44195Z" fill="#505050"/>
<path d="M14.9694 7H3.62503C3.27981 7 3 7.27981 3 7.62503C3 7.97025 3.27981 8.25006 3.62503 8.25006H14.9693C15.3146 8.25006 15.5944 7.97025 15.5944 7.62503C15.5944 7.27981 15.3146 7 14.9694 7Z" fill="#505050"/>
</svg>
