<svg width="16" height="16" viewBox="0 0 16 16" fill="none" xmlns="http://www.w3.org/2000/svg">
<g clip-path="url(#clip0)">
<path d="M15.375 11.1601C15.7202 11.1601 16 10.8803 16 10.5351V6.12881C16 4.85369 14.9626 3.81631 13.6875 3.81631C12.4124 3.81631 11.375 4.85369 11.375 6.12881V13.6875C11.375 14.9626 12.4124 16 13.6875 16C14.9626 16 16 14.9626 16 13.6875C16 13.3423 15.7202 13.0625 15.375 13.0625C15.0298 13.0625 14.75 13.3423 14.75 13.6875C14.75 14.2734 14.2734 14.75 13.6875 14.75C13.1016 14.75 12.625 14.2734 12.625 13.6875V6.12881C12.625 5.54294 13.1016 5.06631 13.6875 5.06631C14.2734 5.06631 14.75 5.54294 14.75 6.12881V10.5351C14.75 10.8803 15.0298 11.1601 15.375 11.1601Z" fill="#31609A"/>
<path d="M2.3125 5.72256C1.03737 5.72256 0 6.75994 0 8.03507V13.6875C0 14.9626 1.03737 16 2.3125 16C3.58763 16 4.625 14.9626 4.625 13.6875V8.03507C4.625 6.75994 3.58763 5.72256 2.3125 5.72256ZM3.375 13.6875C3.375 14.2734 2.89837 14.75 2.3125 14.75C1.72663 14.75 1.25 14.2734 1.25 13.6875V8.03507C1.25 7.44919 1.72663 6.97256 2.3125 6.97256C2.89837 6.97256 3.375 7.44919 3.375 8.03507V13.6875Z" fill="#31609A"/>
<path d="M8 0C6.72487 0 5.6875 1.03737 5.6875 2.3125V13.6875C5.6875 14.9626 6.72487 16 8 16C9.27513 16 10.3125 14.9626 10.3125 13.6875V2.3125C10.3125 1.03737 9.27513 0 8 0ZM9.0625 13.6875C9.0625 14.2734 8.58587 14.75 8 14.75C7.41413 14.75 6.9375 14.2734 6.9375 13.6875V2.3125C6.9375 1.72663 7.41413 1.25 8 1.25C8.58587 1.25 9.0625 1.72663 9.0625 2.3125V13.6875Z" fill="#31609A"/>
</g>
<defs>
<clipPath id="clip0">
<rect width="16" height="16" fill="white"/>
</clipPath>
</defs>
</svg>
